<?xml version="1.0" encoding="UTF-8"?>
<svg width="272px" height="145px" viewBox="0 0 272 145" version="1.1" xmlns="http://www.w3.org/2000/svg" xmlns:xlink="http://www.w3.org/1999/xlink">
    <title>CX_CI_W</title>
    <g id="Page-1" stroke="none" stroke-width="1" fill="none" fill-rule="evenodd">
        <path d="M57.9275,0.0002 L57.9425,0.0002 L74.2235,0.0002 L74.2385,0.0002 C104.7295,0.0002 129.8975,23.8792 132.0055,53.8582 L105.4175,53.8582 C105.8755,49.8012 106.3345,47.8482 106.3345,47.8482 C110.8425,26.0932 101.4825,23.0432 87.1915,26.1902 C87.1915,26.1902 78.6645,28.4152 66.0905,28.4152 L66.0835,28.3932 L66.0755,28.4152 C53.5015,28.4152 44.9745,26.1902 44.9745,26.1902 C30.6835,23.0432 21.3235,26.0932 25.8315,47.8482 C25.8315,47.8482 27.6525,55.5742 27.6525,72.2832 C27.6525,88.9922 25.8315,96.7182 25.8315,96.7182 C21.3235,118.4732 30.6835,121.5232 44.9745,118.3762 C44.9745,118.3762 53.5015,116.1512 66.0755,116.1512 L66.0905,116.1512 C78.6645,116.1512 87.1915,118.3762 87.1915,118.3762 C101.4825,121.5232 110.8425,118.4732 106.3345,96.7182 C106.307502,96.6015555 105.862059,94.6468765 105.4185,90.7092 L132.0055,90.7092 C129.8975,120.6872 104.7295,144.5672 74.2385,144.5672 L57.9275,144.5672 C26.0675,144.5672 0.000500000001,118.5002 0.000500000001,86.6412 L0.000500000001,57.9272 C0.000500000001,26.0672 26.0675,0.0002 57.9275,0.0002 Z M164.7993,1.4166 L182.1323,25.9166 C190.0803,37.0716 193.9033,43.5856 195.6583,52.1736 C196.2763,55.1936 197.5833,59.0956 198.9543,60.6616 C200.516294,62.44765 201.752951,62.4397512 201.952965,62.4253493 C202.147609,62.4397178 203.387552,62.4508 204.9523,60.6616 C206.3233,59.0956 207.6293,55.1936 208.2463,52.1736 C210.0023,43.5856 213.8253,37.0716 221.7733,25.9166 L239.1053,1.4166 L271.8993,1.4166 L225.7843,64.7036 C223.3813,67.9276 219.5893,69.3316 219.5893,69.3316 C217.3633,70.5106 215.5443,70.6676 215.5443,72.2826 C215.5443,73.8986 217.3633,74.0556 219.5893,75.2336 C219.5893,75.2336 223.3813,76.6386 225.7843,79.8626 L271.8993,143.1496 L239.1053,143.1496 L221.7733,118.6496 C213.8253,107.4946 210.0023,100.9806 208.2463,92.3926 C207.6293,89.3726 206.3233,85.4706 204.9523,83.9036 C203.387552,82.1153161 202.147609,82.1264752 201.950626,82.1409264 C201.752951,82.1264415 200.516294,82.1184645 198.9543,83.9036 C197.5833,85.4706 196.2763,89.3726 195.6583,92.3926 C193.9033,100.9806 190.0803,107.4946 182.1323,118.6496 L164.7993,143.1496 L132.0053,143.1496 L178.1203,79.8626 C180.5243,76.6386 184.3153,75.2336 184.3153,75.2336 C186.5413,74.0556 188.3603,73.8986 188.3603,72.2826 C188.3603,70.6676 186.5413,70.5106 184.3153,69.3316 C184.3153,69.3316 180.5243,67.9276 178.1203,64.7036 L132.0053,1.4166 L164.7993,1.4166 Z" id="CX_CI_W" fill="#FFFFFF"></path>
    </g>
</svg>